<?xml version="1.0" encoding="UTF-8"?>
<svg width="752pt" height="752pt" version="1.1" viewBox="0 0 752 752" xmlns="http://www.w3.org/2000/svg">
 <path d="m220.59 154.01c-36.875 0-66.582 29.891-66.582 66.582s29.605 66.598 66.582 66.598c36.691 0 66.598-29.566 66.598-66.598 0-36.691-29.84-66.582-66.598-66.582zm-7.3711 15.336v6.7344c-0.015625 4.0859 3.2852 7.4141 7.3711 7.4297 4.1133 0.023437 7.4609-3.3125 7.4414-7.4297v-6.7344c22.738 3.2383 40.605 21.133 43.82 43.879h-6.7344c-4.0859-0.015624-7.4141 3.2852-7.4297 7.3711-0.023437 4.1133 3.3125 7.4609 7.4297 7.4414h6.7344c-3.2344 22.711-21.113 40.516-43.82 43.762v-6.6758c0.015625-4.1133-3.3281-7.4531-7.4414-7.4297-4.0859 0.015626-7.3867 3.3438-7.3711 7.4297v6.6914c-22.738-3.2188-40.637-21.043-43.879-43.777h6.7344c4.1133 0.015626 7.4531-3.3281 7.4297-7.4414-0.015624-4.0859-3.3438-7.3867-7.4297-7.3711h-6.7344c3.2188-22.766 21.113-40.66 43.879-43.879zm197.3 10.883c-5.2383 2.7461-7.7383 6.5156-9.8281 11.531-1.4883 3.5742-2.3164 6.0078-4.6953 8.8438-2.3828 2.8359-6.5781 6.2969-15.305 10-8.7266 3.7031-14.055 4.3047-17.746 4.0469-3.6953-0.25781-6.0625-1.3828-9.668-2.7891-3.6055-1.4062-8.9609-3.0742-15.133-0.92578-5.8594 2.0391-11.477 6.1992-19.062 13.918-7.5859 7.7188-11.75 13.355-13.602 19.281-1.8516 5.9219-0.69531 10.508 1.1992 15.133 1.4648 3.582 2.6289 5.9336 2.9492 9.625 0.32031 3.6914-0.22266 9.0742-3.7734 17.863-3.5547 8.7891-6.875 12.961-9.668 15.391-2.793 2.4297-5.2422 3.3164-8.7891 4.8711-4.6211 2.0273-8.5742 4.5-11.359 10.043-1.9492 3.8789-2.9688 8.4844-3.3828 14.582h-37.258v-14.855c-0.015625-4.0625-3.3086-7.3555-7.3711-7.3711h-22.242c-28.566 0-51.785 23.215-51.785 51.785v185.01c0 28.566 23.215 51.785 51.785 51.785l370.03-0.003906c12.172 0 22.172-10 22.172-22.172v-238.22c-0.082032-10.824-1.1523-17.77-4.0312-23.27-2.8789-5.4961-7.1094-7.9727-11.531-9.8281-3.5703-1.4961-6.0078-2.3164-8.8438-4.6953-2.8359-2.3828-6.2969-6.5625-10-15.289-3.7031-8.7266-4.3047-14.066-4.0469-17.762 0.25-3.6953 1.3828-6.0625 2.7891-9.668 1.4062-3.6055 3.0625-8.6797 0.92578-15.133-1.9531-5.8906-6.1992-11.477-13.918-19.062-7.7188-7.5859-13.355-11.75-19.281-13.602-5.9219-1.8516-11.551-0.26953-15.133 1.1992s-5.9336 2.6289-9.625 2.9492c-3.6914 0.32031-9.0156-0.20312-17.805-3.7578-8.7891-3.5547-13.02-6.875-15.449-9.668-2.4297-2.7969-3.3125-5.2578-4.8711-8.8008-1.5547-3.543-3.75-8.1992-10.043-11.359-5.5469-2.7852-12.504-3.75-23.328-3.6562s-17.77 1.1523-23.27 4.0312zm-121.28 143.5c0.78125-1.5547 1.875-2.2109 4.0469-3.1641 2.8047-1.2305 7.6797-2.9688 12.559-7.2109 4.8828-4.2461 9.5508-10.785 13.715-21.086 4.1641-10.301 5.3711-18.242 4.8125-24.684-0.55859-6.4453-2.8281-11.098-3.9883-13.934-0.91797-2.2422-1.2539-3.2539-0.76562-5.0742 0.54688-2.0312 3.1953-6.375 10.043-13.34 6.8477-6.9648 11.113-9.6016 13.109-10.262 1.4023-0.46484 2.5547-0.35937 5.1445 0.64844 2.8516 1.1133 7.5234 3.3789 13.977 3.8281s14.355-0.90625 24.582-5.2461c10.23-4.3398 16.707-9.082 20.871-14.035 4.1602-4.9531 5.7969-9.8516 6.9805-12.676 1.0117-2.418 1.3945-3.2383 3.0625-4.1484 2.1211-1.3906 8.6055-2.1797 16.559-2.3555 9.7773-0.082032 14.691 1.1367 16.57 2.082 1.3945 0.69922 1.875 1.2305 3.1094 4.0312 1.2305 2.8047 2.9648 7.6914 7.2109 12.574 4.2461 4.8828 10.785 9.5352 21.086 13.699 10.301 4.1641 18.242 5.3711 24.684 4.8125 6.4453-0.55859 10.965-2.8398 13.934-4.0469 1.1758-0.48047 3.0664-1.3359 5.0742-0.70703s6.375 3.1953 13.34 10.043c6.9648 6.8477 9.7148 11.09 10.262 13.121 0.45703 1.707 0.46094 2.2773-0.65234 5.1289-1.1133 2.8516-3.3203 7.5234-3.7734 13.977-0.44922 6.4531 0.84766 14.355 5.1875 24.582 4.3398 10.23 9.1367 16.652 14.09 20.812 4.9531 4.1602 9.8516 5.8711 12.676 7.0547 1.9219 0.80469 3.1289 1.1875 4.1055 3.0508s2.2578 6.7383 2.3398 16.504c0.082031 9.7695-1.0781 14.727-2.0234 16.605-0.875 1.7422-2.0938 2.2305-4.0898 3.1055-2.8047 1.2305-7.6914 2.9688-12.574 7.2109-4.8828 4.2461-9.5352 10.785-13.703 21.086-4.1641 10.301-5.3711 18.242-4.8125 24.684 0.55859 6.4453 2.9336 11.078 4.0469 13.934 0.66406 1.707 1.3945 3.0781 0.76562 5.0859-0.625 2.0078-3.2109 6.3594-10.059 13.324s-11.168 9.6016-13.168 10.262c-1.4727 0.48828-2.2773 0.46094-5.1289-0.64844-2.8516-1.1133-7.5234-3.3203-13.977-3.7734-6.4531-0.44922-14.355 0.84766-24.582 5.1875-10.23 4.3398-16.652 9.0938-20.812 14.047-4.1602 4.9531-5.8086 9.8945-6.9961 12.719-0.67578 1.6094-1.2461 3.1289-3.1055 4.1055-1.8633 0.97656-6.3906 2.2188-16.504 2.3398-9.7695 0.082031-14.73-1.0078-16.547-2.0664-1.4375-0.83984-1.9336-1.2422-3.1641-4.0469-1.2305-2.8047-2.9648-7.6797-7.2109-12.559-4.2461-4.8828-10.785-9.5508-21.086-13.715-10.301-4.1641-18.242-5.3711-24.684-4.8125-6.4453 0.55859-11.199 2.9414-13.875 4.0469-2.0664 0.85156-3.5 1.3008-5.1445 0.76562-2-0.64844-6.3594-3.1953-13.324-10.043-6.9648-6.8477-9.6367-11.156-10.262-13.168-0.57813-1.8594-0.25-2.5 0.70703-5.1445 1.0391-2.8789 3.3203-7.5234 3.7734-13.977 0.44922-6.4531-0.90625-14.355-5.2461-24.582-4.3398-10.23-9.0938-16.652-14.047-20.812-4.9531-4.1602-9.8359-5.8555-12.66-7.0391-2.6016-1.0898-3.1875-1.375-4.1602-3.0625-1.0508-1.8203-2.2578-6.7383-2.3398-17.496 0.082031-9.4102 1.1758-13.812 2.0547-15.559zm-75.961-117.93v14.855c-0.015624 1.9609 0.75 3.8477 2.125 5.2461l14.758 14.758c2.8945 2.9102 7.5977 2.9102 10.492 0 2.9102-2.8945 2.9102-7.6016 0-10.492l-12.574-12.559v-11.809c-0.015625-4.0859-3.3438-7.3867-7.4297-7.3711-4.0664 0.015625-7.3555 3.3047-7.3711 7.3711zm203.14 18.688c-5.4961 6.3555-10.875 15.027-15.723 25.566-1.2891 2.8047-2.5547 5.7383-3.7578 8.8008-23.688 11.305-41.215 32.586-47.75 58.156-6.4336 25.168-1.4453 51.93 13.352 73.055-0.90234 3.5234-1.3398 7-1.3398 10.797 0.011718 12.242 5.1055 23.949 14.035 32.332 4.2461 3.9375 11.172 1.707 12.301-3.9727 1.3086-6.7305 5.1523-12.379 10.422-16.102 0.84766 2.3984 1.6875 4.8047 2.5742 7.082 4.7812 12.301 10.051 22.645 15.406 30.363 2.6797 3.8594 5.3359 7.1133 8.3086 9.625 2.9727 2.5117 6.4336 4.6406 10.969 4.6406 4.5352 0 7.9531-2.1289 10.926-4.6406s5.6758-5.7656 8.3555-9.625c5.3555-7.7227 10.57-18.066 15.348-30.363 0.89062-2.2852 1.7383-4.7031 2.5859-7.1094 5.2734 3.7188 9.1094 9.3828 10.422 16.129 1.1016 5.7344 8.0938 7.9805 12.344 3.9727 8.9258-8.3789 13.977-20.086 13.988-32.332 0-3.793-0.43359-7.2773-1.3359-10.797 14.828-21.172 19.832-48.016 13.344-73.219-6.5703-25.527-24.109-46.734-47.766-58.012-1.2031-3.0586-2.457-5.9883-3.7422-8.7891-4.8477-10.539-10.184-19.211-15.68-25.566-5.4961-6.3555-10.949-11.258-18.789-11.258-7.8398 0-13.293 4.9023-18.789 11.258zm18.789 3.5547c-0.41406 0 3.3828 1.2344 7.6016 6.1133 3.7578 4.3438 7.9688 10.973 11.953 19.094-3.7734 7.0781-11.086 11.633-19.223 11.766-8.3945 0.13281-16.035-4.4609-19.93-11.809 3.9805-8.1016 8.2031-14.711 11.953-19.047 4.2188-4.8789 8.0586-6.1133 7.6445-6.1133zm-26.188 40.887c6.9688 6.9805 16.594 11.062 26.797 10.898 9.7773-0.15625 18.875-4.1953 25.539-10.867 6.2773 17.531 10.84 39.207 10.84 62.637 0 12.078-1.2266 24.371-3.2656 36.262-8.4453 9.8711-20.785 15.551-33.82 15.523-12.965-0.027344-25.246-5.6562-33.645-15.465-2.0586-11.906-3.2812-24.223-3.2812-36.32 0-23.445 4.5625-45.129 10.84-62.668zm3.9609 47.867c0 12.172 10.055 22.242 22.227 22.242s22.184-10.07 22.184-22.242-10.012-22.172-22.465-22.172c-12.199 0.30469-21.945 10.188-21.945 22.172zm-177.58 29.672h37.215c0.40234 7.4648 1.5078 12.809 3.8008 17.199 3.1211 5.9766 7.8047 8.3086 11.531 9.8281 3.5859 1.4609 6.0664 2.3164 8.9023 4.6953 2.8359 2.3828 6.2422 6.5781 9.9414 15.305 3.7031 8.7266 4.2891 14.055 4.0312 17.746-0.25 3.6953-1.3633 6.0625-2.7734 9.668-1.6602 4.25-2.8906 9.2422-0.94141 15.133 1.9531 5.8906 6.2148 11.477 13.934 19.062 7.7188 7.5859 13.355 11.75 19.281 13.602 5.9219 1.8516 10.418 0.76953 15.133-1.1992 3.582-1.4688 5.9219-2.6289 9.6094-2.9492 3.6914-0.32031 9.0742 0.21875 17.863 3.7734 8.7891 3.5547 12.977 6.918 15.406 9.7109 2.4297 2.7969 3.3008 5.2578 4.8555 8.8008 1.8047 4.1094 4.5117 8.5742 10.059 11.359 5.5469 2.7852 12.504 3.707 23.328 3.6133s17.77-1.168 23.27-4.0469c5.4961-2.8789 7.9062-6.9453 9.8281-11.531 1.4961-3.5703 2.3164-6.0078 4.6953-8.8438 2.3828-2.8359 6.5625-6.2969 15.289-10 8.7266-3.7031 14.125-4.2891 17.82-4.0312 3.6953 0.25781 6.0039 1.3711 9.6094 2.7734 4.6719 1.8203 9.2422 2.8906 15.133 0.9375 5.8906-1.9531 11.477-6.2148 19.062-13.934 7.5859-7.7188 11.75-13.355 13.602-19.281 1.8516-5.9219 0.63281-10.77-1.1562-15.133-1.4688-3.582-2.6719-5.9219-2.9922-9.6094-0.32031-3.6914 0.19531-9.0156 3.7578-17.805 3.5547-8.7891 6.9297-13.035 9.7266-15.465 2.9219-2.4375 6.3828-3.8828 8.9688-4.9297v204.91c0 4.2266-3.1445 7.3711-7.3711 7.3711l-370.02-0.003906c-20.625 0-36.969-16.359-36.969-36.984s16.355-37.051 36.969-37.027l22.184 0.058593c4.1094 0.015625 7.4453-3.3203 7.4297-7.4297zm246.89 30.539c7.3242 5.3672 12.066 14.02 12.066 23.859-0.003906 4.2734-0.70312 8.1602-2.4414 11.965-3.625-6.1094-8.8789-10.938-14.871-14.223 1.9844-6.918 3.7656-14.152 5.2461-21.605zm-94.23 0.015625c1.4805 7.4531 3.2617 14.691 5.2461 21.605-5.9336 3.25-11.145 7.9688-14.812 13.902-1.7383-3.8086-2.4961-7.3867-2.5-11.664 0.56641-12.008 5.4961-18.844 12.066-23.848zm18.457 13.773c8.625 4.7734 18.414 7.3789 28.527 7.3984 10.203 0.023438 20.113-2.5859 28.832-7.3984-0.39063 1.2617-0.74219 2.4961-1.1133 3.7305-2.0508 7.1797-4.2773 14.059-6.6914 20.277-4.4648 11.488-9.3984 21.07-13.758 27.359-2.1797 3.1445-4.2539 5.4648-5.7383 6.7188-0.64453 0.54297-1.0977 0.80078-1.3867 0.95312-0.30078-0.15234-0.76172-0.41406-1.4023-0.95312-1.4844-1.2539-3.5586-3.5781-5.7383-6.7188-4.3594-6.2852-9.25-15.871-13.715-27.359-2.4375-6.2734-4.6914-13.215-6.8203-20.66-0.35938-1.2617-0.70312-2.2617-1-3.3477zm87.898 126.75 7.6875 1.7344-48.82 24.383-11.461-22.949c-1.6484-3.2969-5.4648-4.8789-8.9609-3.7148l-111 37.043c-3.8711 1.2852-5.9727 5.4609-4.6953 9.3359 1.2852 3.9023 5.5 6.0117 9.3945 4.6953l104.87-35.02 11.91 23.875c1.8359 3.6523 6.293 5.1211 9.9414 3.2812l55.699-27.82-3.3672 7.6602c-1.668 3.7422 0.023437 8.1289 3.7734 9.7852 3.7539 1.6523 8.1367-0.066406 9.7695-3.8281l11.504-26.219c1.0781-2.5352 0.74219-4.832-0.082032-6.5039-1.0664-2.043-2.7539-3.3438-4.9883-3.875l-27.918-6.2852c-5.3242-1.0547-8.375 3.0391-8.8203 5.582-0.90234 3.9766 1.5898 7.9336 5.5625 8.8438z"/>
</svg>
